# xmcd CD database file
#
# Track frame offsets:
#	150
#	22519
#	41958
#	68832
#	96149
#	125424
#	153530
#	169909
#
# Disc length: 2546 seconds
#
# Revision: 2
# Processed by: cddbd v1.5.2PL0 Copyright (c) Steve Scherf et al.
# Submitted via: CDex 1.81
#
DISCID=6109f008
DTITLE=Nobuo Hara and Sharps and Flats - Prelude To The Afternoon Of A Faun
DYEAR=2014
DGENRE=Jazz
TTITLE0=Prelude To The Afternoon Of A Faun
TTITLE1=My Love
TTITLE2=Killing Me Softly With His Song
TTITLE3=Last Tango In Paris
TTITLE4=Let's Get It On
TTITLE5=Also sprach Zarathustra
TTITLE6=Yesterday Once More
TTITLE7=Manteca
EXTD=YEAR: 2014
EXTT0=
EXTT1=
EXTT2=
EXTT3=
EXTT4=
EXTT5=
EXTT6=
EXTT7=
PLAYORDER=
